<?xml version="1.0" encoding="utf-8"?>
<!-- Generator: Adobe Illustrator 27.1.1, SVG Export Plug-In . SVG Version: 6.00 Build 0)  -->
<svg version="1.1" id="Layer_1" xmlns="http://www.w3.org/2000/svg" xmlns:xlink="http://www.w3.org/1999/xlink" x="0px" y="0px"
	 viewBox="0 0 512 512" style="enable-background:new 0 0 512 512;" xml:space="preserve">
<style type="text/css">
	.st0{fill:#EB1C23;}
	.st1{fill:#FFFFFF;}
</style>
<path class="st0" d="M256,1024L256,1024c424.2,0,768-343.8,768-768v0c0-424.1-343.8-768-768-768h0c-424.1,0-768,343.8-768,768v0
	C-512,680.1-168.2,1024,256,1024z"/>
<path class="st1" d="M1430.5-371c0,16.6-0.9,32.7-2.5,48h-139c-1.7-15.3-2.5-31.3-2.5-48s0.9-32.7,2.5-48h139
	C1429.7-403.7,1430.5-387.7,1430.5-371z M1452.1-419h92.3c4,15.4,6.1,31.4,6.1,48s-2.1,32.6-6.1,48h-92.3c1.6-15.4,2.4-31.5,2.4-48
	C1454.5-387.5,1453.7-403.6,1452.1-419z M1536.5-443H1449c-7.5-47.9-22.3-88-41.5-113.7C1466.3-541.2,1514-498.6,1536.5-443
	L1536.5-443z M1424.7-443h-132.4c4.6-27.3,11.6-51.4,20.2-71c7.9-17.7,16.7-30.5,25.1-38.6c8.4-7.9,15.4-10.3,20.8-10.3
	s12.4,2.4,20.8,10.3c8.5,8.1,17.2,20.9,25.1,38.6C1413.2-494.5,1420.2-470.4,1424.7-443z M1268-443h-87.5
	c22.5-55.6,70.2-98.2,129-113.7C1290.3-531.1,1275.5-490.9,1268-443L1268-443z M1172.6-419h92.3c-1.6,15.4-2.4,31.5-2.4,48
	c0,16.5,0.8,32.5,2.4,48h-92.3c-4-15.4-6.1-31.4-6.1-48S1168.6-403.6,1172.6-419z M1312.5-228.1c-8.7-19.5-15.7-43.6-20.2-70.9
	h132.4c-4.6,27.3-11.6,51.4-20.2,70.9c-7.9,17.7-16.7,30.5-25.1,38.6c-8.4,8-15.4,10.4-20.8,10.4s-12.4-2.4-20.8-10.3
	C1329.2-197.5,1320.4-210.3,1312.5-228.1L1312.5-228.1z M1268-299c7.5,47.9,22.3,88,41.5,113.7c-58.8-15.5-106.5-58.1-129-113.7
	H1268z M1536.5-299c-22.5,55.6-70.2,98.2-128.9,113.7c19.1-25.6,33.9-65.8,41.5-113.7H1536.5L1536.5-299z"/>
<path class="st1" d="M256,65c3.5,0,6.9,0.8,10.1,2.2l141.2,59.9c16.5,7,28.8,23.3,28.7,42.9c-0.4,74.4-31,210.5-160.3,272.4
	c-12.5,6-27.1,6-39.6,0C107,380.6,76.4,244.4,76,170c-0.1-19.7,12.2-35.9,28.7-42.9L246,67.2C249.1,65.8,252.5,65,256,65z
	 M256,115.1v283.5c103.5-50.1,131.3-161,132-227.6L256,115.1L256,115.1z"/>
</svg>
