<svg id="Layer_1" data-name="Layer 1" xmlns="http://www.w3.org/2000/svg" viewBox="0 0 1920 312.18"><defs><style>.cls-1{fill:#eb1c23;}.cls-2{fill:#fff;fill-rule:evenodd;}.cls-3{fill:#13131b;}</style></defs><title>Lockup_Red and Black</title><g id="Icon_Red" data-name="Icon Red"><path class="cls-1" d="M312.18,156.09A156.09,156.09,0,1,1,156.09,0,156.09,156.09,0,0,1,312.18,156.09"/><path class="cls-2" d="M84.49,99.43a6.5,6.5,0,0,1,6.5,6.5V148.5h42.57a6.5,6.5,0,1,1,0,13H89.08A11.09,11.09,0,0,1,78,150.41V105.93a6.5,6.5,0,0,1,6.5-6.5"/><path class="cls-2" d="M227.37,210.89a6.5,6.5,0,0,1-6.5-6.5V161.82H178.31a6.5,6.5,0,1,1,0-13h44.47a11.09,11.09,0,0,1,11.09,11.09v44.47a6.5,6.5,0,0,1-6.5,6.5"/><path class="cls-2" d="M156.09,24A131.63,131.63,0,1,0,287.71,155.65,131.63,131.63,0,0,0,156.09,24m0,251.55a120,120,0,0,1-34-4.9L221,171.8v32.59a6.5,6.5,0,1,0,13,0v-51a4.55,4.55,0,0,0-4.55-4.55h-51a6.5,6.5,0,1,0,0,13h33.24L108,265.51A120,120,0,0,1,189.1,40.32L91,138.44v-32.5a6.5,6.5,0,1,0-13,0v51a4.55,4.55,0,0,0,4.55,4.55h51a6.5,6.5,0,1,0,0-13H100.22L203.33,45.39a119.94,119.94,0,0,1-47.25,230.18"/></g><g id="Black"><polygon class="cls-3" points="541.17 235.51 541.17 208.18 452.72 208.18 452.72 160.99 538.59 160.99 538.59 134.18 452.72 134.18 452.72 90.6 541.17 90.6 541.17 63.52 422.81 63.52 422.81 235.51 541.17 235.51"/><path class="cls-3" d="M678.62,235.51V166.92c0-27.33,2.06-59.31-48.74-59.31-17.79,0-29.14,5.67-36.36,12.12V109.68H568.26V235.51h29.14V177c0-21.92-2.32-43.58,29.14-43.58,25.27,0,23,11.6,23,35.84v66.27Z"/><path class="cls-3" d="M816.56,222.1V109.68h-26.3v10.06c-9.8-8.77-25.79-12.12-39.19-12.12-43.33,0-50.28,26-50.28,64.21,0,30.17,2.83,63.69,50.54,63.69,12.12,0,27.07-2.84,36.1-11.09,0,6.45.26,12.89-.51,19.34-1.55,11.86-13.67,17-30.43,17-16.24,0-24.24-5.93-24.24-15H703.36c0,32,28.62,39.71,53.89,39.71,23.21,0,53.63-6.19,58.28-36.1,1-7,1-15.73,1-27.33m-28.88-50.28c0,31.46-6.7,37.39-31.72,37.39-21.66,0-26-8-26-37.39s4.38-38.42,26-38.42c25,0,31.72,7,31.72,38.42"/><path class="cls-3" d="M954.56,235.51v-82c0-32.49-19.6-45.9-53.37-45.9-29.14,0-57.25,6.45-57.25,38.68H872.3c0-13.41,16-13.92,27.33-13.92,25.53,0,26.56,7.48,26.56,24.24H894c-26.81,0-53.63,4.13-53.63,40.74,0,30.69,19.08,40.23,49,40.23,18.05,0,31.2-5.41,39.19-12.38v10.31Zm-27.85-55.18c0,21.92-2.84,33.26-32.75,33.26-19.86,0-24.5-5.93-24.5-16.76,0-13.41,5.68-16.5,23.47-16.5Z"/><path class="cls-3" d="M1095.13,222.1V109.68h-26.3v10.06c-9.8-8.77-25.79-12.12-39.19-12.12-43.33,0-50.28,26-50.28,64.21,0,30.17,2.83,63.69,50.54,63.69,12.12,0,27.07-2.84,36.1-11.09,0,6.45.26,12.89-.51,19.34-1.55,11.86-13.67,17-30.43,17-16.25,0-24.24-5.93-24.24-15H981.94c0,32,28.62,39.71,53.89,39.71,23.21,0,53.63-6.19,58.28-36.1,1-7,1-15.73,1-27.33m-28.88-50.28c0,31.46-6.71,37.39-31.72,37.39-21.66,0-26-8-26-37.39s4.38-38.42,26-38.42c25,0,31.72,7,31.72,38.42"/><path class="cls-3" d="M1235.06,183.68c0-43.84-2.58-76.07-57.51-76.07-50.54,0-57.76,28.88-57.76,66.53,0,36.62,8,63.43,58.53,63.43,23.72,0,55.18-5.93,55.18-39.71h-27.33c-.25,14.18-16.24,15.73-26.81,15.73-25,0-30.43-8.51-30.43-29.91ZM1206.18,160h-56.73c0-16.76,2.58-28.36,28.1-28.36,27.07,0,28.62,10.31,28.62,28.36"/><polygon class="cls-3" points="1435.28 235.51 1435.28 63.27 1395.3 63.27 1348.89 200.44 1302.22 63.52 1262 63.52 1262 235.51 1289.85 235.51 1289.85 101.94 1333.42 235.51 1362.82 235.51 1406.91 101.94 1406.91 235.51 1435.28 235.51"/><path class="cls-3" d="M1578.46,183.68c0-43.84-2.58-76.07-57.51-76.07-50.54,0-57.76,28.88-57.76,66.53,0,36.62,8,63.43,58.53,63.43,23.72,0,55.18-5.93,55.18-39.71h-27.33c-.25,14.18-16.24,15.73-26.81,15.73-25,0-30.43-8.51-30.43-29.91ZM1549.58,160h-56.73c0-16.76,2.58-28.36,28.1-28.36,27.07,0,28.62,10.31,28.62,28.36"/><path class="cls-3" d="M1718.83,235.51V55.79h-29.14V119c-9.54-9.8-24.5-11.35-38.16-11.35-41.77,0-49,27.33-49,65.24,0,30.68,1.55,64.72,51.83,64.72,16.76,0,30.43-5.16,38.16-12.12v10.06Zm-28.62-62.66c0,31.46-7.22,38.42-32.23,38.42-21.66,0-26.31-9-26.31-38.42s4.65-38.42,26.31-38.42c25,0,32.23,7,32.23,38.42"/><path class="cls-3" d="M1783.17,77.45c0-10.31-5.93-15.73-16-15.73s-16,5.41-16,15.73c0,10.06,5.68,16,16,16s16-5.93,16-16m-1.29,32.23h-29.14V235.51h29.14Z"/><path class="cls-3" d="M1920,235.51v-82c0-32.49-19.6-45.9-53.37-45.9-29.14,0-57.25,6.45-57.25,38.68h28.36c0-13.41,16-13.92,27.33-13.92,25.53,0,26.56,7.48,26.56,24.24H1859.4c-26.81,0-53.63,4.13-53.63,40.74,0,30.69,19.08,40.23,49,40.23,18.05,0,31.2-5.41,39.2-12.38v10.31Zm-27.85-55.18c0,21.92-2.84,33.26-32.75,33.26-19.85,0-24.49-5.93-24.49-16.76,0-13.41,5.67-16.5,23.46-16.5Z"/></g></svg>